<?xml version="1.0" encoding="UTF-8" standalone="no"?><!DOCTYPE svg PUBLIC "-//W3C//DTD SVG 1.1//EN" "http://www.w3.org/Graphics/SVG/1.1/DTD/svg11.dtd"><svg width="100%" height="100%" viewBox="0 0 1089 189" version="1.1" xmlns="http://www.w3.org/2000/svg" xmlns:xlink="http://www.w3.org/1999/xlink" xml:space="preserve" xmlns:serif="http://www.serif.com/" style="fill-rule:evenodd;clip-rule:evenodd;stroke-linejoin:round;stroke-miterlimit:2;"><path d="M77.4,44.2c18.133,0 31.467,3.667 40,11c8.667,7.333 13,16.933 13,28.8c0,4 -0.533,8.467 -1.6,13.4c-2.533,10.933 -7.267,20.533 -14.2,28.8c-6.933,8.133 -15.467,14.467 -25.6,19c-10,4.4 -20.867,6.6 -32.6,6.6c-18.533,0 -32.267,-3.667 -41.2,-11c-8.8,-7.467 -13.2,-17.333 -13.2,-29.6c-0,-4.133 0.533,-8.733 1.6,-13.8c2.533,-10.4 7.333,-19.6 14.4,-27.6c7.2,-8.133 15.933,-14.4 26.2,-18.8c10.4,-4.533 21.467,-6.8 33.2,-6.8Zm-0.6,17.8c-2.8,0 -5.8,2.533 -9,7.6c-3.067,4.933 -6.733,14.333 -11,28.2c-4.267,13.867 -6.4,23.6 -6.4,29.2c-0,2.933 0.467,4.933 1.4,6c0.933,0.933 2.2,1.4 3.8,1.4c2.8,0.267 5.667,-2.133 8.6,-7.2c3.067,-5.067 6.867,-14.933 11.4,-29.6c4.133,-12.933 6.2,-22.333 6.2,-28.2c-0,-2.8 -0.467,-4.733 -1.4,-5.8c-0.8,-1.067 -2,-1.6 -3.6,-1.6Z" style="fill:#fff;fill-rule:nonzero;"/><path d="M249.944,122.4c-0.267,0.533 -0.4,1.333 -0.4,2.4c-0,0.933 0.2,1.667 0.6,2.2c0.533,0.533 1.2,0.8 2,0.8c1.6,-0 2.933,-0.667 4,-2c1.2,-1.467 2,-2.2 2.4,-2.2c0.667,0 1.2,0.467 1.6,1.4c0.4,0.8 0.6,1.8 0.6,3c0.133,3.867 -1.133,7.667 -3.8,11.4c-2.667,3.6 -6.6,6.6 -11.8,9c-5.067,2.267 -11.2,3.4 -18.4,3.4c-8.8,0 -15.8,-2 -21,-6c-5.2,-4.133 -7.867,-9.6 -8,-16.4c-0,-4.933 1.2,-10.467 3.6,-16.6l11,-28.8c0.667,-1.733 1,-3.133 1,-4.2c-0,-1.733 -0.6,-3.067 -1.8,-4c-1.067,-1.067 -2.4,-1.6 -4,-1.6c-2.533,-0 -5.133,1.2 -7.8,3.6c-2.533,2.267 -4.6,6 -6.2,11.2l-0,-0.4l-12.6,40.6c-0.4,1.6 -0.6,3 -0.6,4.2c-0,1.733 0.333,3.133 1,4.2c0.667,0.933 1.6,1.867 2.8,2.8c0.933,0.933 1.6,1.733 2,2.4c0.4,0.533 0.467,1.267 0.2,2.2c-0.667,1.733 -2,3 -4,3.8c-2,0.8 -5.067,1.2 -9.2,1.2l-45.6,0c-3.467,0 -6,-0.533 -7.6,-1.6c-1.6,-1.2 -2.133,-2.733 -1.6,-4.6c0.533,-1.6 1.933,-3 4.2,-4.2c2,-1.067 3.667,-2.333 5,-3.8c1.333,-1.467 2.467,-3.8 3.4,-7l30.4,-99.8c0.4,-1.2 0.6,-2.2 0.6,-3c-0,-1.467 -0.4,-2.667 -1.2,-3.6c-0.667,-0.933 -1.6,-1.867 -2.8,-2.8c-1.333,-1.067 -2.333,-2 -3,-2.8c-0.533,-0.8 -0.6,-1.867 -0.2,-3.2c0.8,-3.067 5,-5.733 12.6,-8c7.6,-2.267 15.533,-3.4 23.8,-3.4c7.733,-0 13.4,1.467 17,4.4c3.733,2.933 5.6,6.933 5.6,12c-0,2.933 -0.467,5.8 -1.4,8.6l-10.8,35.2c5.2,-6.8 10.667,-11.533 16.4,-14.2c5.867,-2.667 12.2,-4 19,-4c8.133,-0 14.667,2.467 19.6,7.4c5.067,4.933 7.6,11.333 7.6,19.2c-0,4.133 -0.667,8.2 -2,12.2l-12.2,39.4Z" style="fill:#fff;fill-rule:nonzero;"/><path d="M459.536,122.4c-0.267,0.533 -0.4,1.333 -0.4,2.4c0,0.933 0.2,1.667 0.6,2.2c0.533,0.533 1.2,0.8 2,0.8c1.6,-0 2.933,-0.667 4,-2c1.2,-1.467 2,-2.2 2.4,-2.2c0.667,0 1.2,0.467 1.6,1.4c0.4,0.8 0.6,1.8 0.6,3c0.133,3.867 -1.133,7.667 -3.8,11.4c-2.667,3.6 -6.6,6.6 -11.8,9c-5.067,2.267 -11.2,3.4 -18.4,3.4c-8.8,0 -15.8,-2 -21,-6c-5.2,-4.133 -7.867,-9.6 -8,-16.4c0,-4.933 1.2,-10.467 3.6,-16.6l11,-28.8c0.667,-1.733 1,-3.133 1,-4.2c0,-1.733 -0.6,-3.067 -1.8,-4c-1.067,-1.067 -2.4,-1.6 -4,-1.6c-2.267,-0 -4.6,1 -7,3c-2.4,2 -4.533,5.133 -6.4,9.4l-11,35.8c-0.267,0.533 -0.4,1.333 -0.4,2.4c0,0.933 0.2,1.667 0.6,2.2c0.533,0.533 1.2,0.8 2,0.8c1.6,-0 2.933,-0.667 4,-2c1.2,-1.467 2,-2.2 2.4,-2.2c0.667,-0 1.2,0.467 1.6,1.4c0.4,0.8 0.6,1.8 0.6,3c0.133,3.867 -1.133,7.667 -3.8,11.4c-2.667,3.6 -6.6,6.6 -11.8,9c-5.067,2.267 -11.2,3.4 -18.4,3.4c-8.8,-0 -15.8,-2 -21,-6c-5.2,-4.133 -7.867,-9.6 -8,-16.4c0,-4.933 1.2,-10.467 3.6,-16.6l11,-28.8c0.667,-1.733 1,-3.133 1,-4.2c0,-1.733 -0.6,-3.067 -1.8,-4c-1.067,-1.067 -2.4,-1.6 -4,-1.6c-2.267,-0 -4.6,1 -7,3c-2.4,1.867 -4.4,4.933 -6,9.2l-13.2,42.8c-0.533,1.467 -0.8,2.867 -0.8,4.2c0,1.6 0.333,2.933 1,4c0.667,0.933 1.6,1.933 2.8,3c0.933,0.8 1.6,1.533 2,2.2c0.4,0.667 0.467,1.467 0.2,2.4c-0.533,1.733 -1.8,3 -3.8,3.8c-2,0.8 -5.133,1.2 -9.4,1.2l-45.6,-0c-3.467,-0 -5.933,-0.533 -7.4,-1.6c-1.6,-1.2 -2.2,-2.733 -1.8,-4.6c0.533,-1.6 1.933,-3 4.2,-4.2c2,-1.067 3.667,-2.333 5,-3.8c1.333,-1.467 2.467,-3.8 3.4,-7l17.8,-57.8c0.267,-0.667 0.4,-1.6 0.4,-2.8c0,-1.467 -0.333,-2.6 -1,-3.4c-0.533,-0.8 -1.467,-1.8 -2.8,-3c-1.333,-1.067 -2.267,-2 -2.8,-2.8c-0.533,-0.8 -0.6,-1.867 -0.2,-3.2c0.8,-3.067 5,-5.733 12.6,-8c7.6,-2.4 15.533,-3.6 23.8,-3.6c6.533,-0 11.667,1.8 15.4,5.4c3.867,3.6 5.733,8.533 5.6,14.8c5.467,-7.6 11.2,-12.867 17.2,-15.8c6.133,-2.933 12.733,-4.4 19.8,-4.4c7.733,-0 14,2.267 18.8,6.8c4.933,4.4 7.667,10.2 8.2,17.4c5.733,-9.067 11.867,-15.333 18.4,-18.8c6.533,-3.6 13.667,-5.4 21.4,-5.4c8.133,-0 14.667,2.467 19.6,7.4c5.067,4.933 7.6,11.333 7.6,19.2c0,4.133 -0.667,8.2 -2,12.2l-12.2,39.4Z" style="fill:#fff;fill-rule:nonzero;"/><path d="M582.956,44.2c5.866,0 10.533,2.4 14,7.2c3.6,4.667 5.4,11.067 5.4,19.2c-0,7.067 -1.267,14.667 -3.8,22.8c-4.934,16.4 -12.867,31.867 -23.8,46.4c-10.8,14.533 -23.27,26.2 -37.403,35c-14,8.8 -28,13.2 -42,13.2c-6.933,0 -12.934,-1.2 -18,-3.6c-4.934,-2.4 -8.667,-5.6 -11.2,-9.6c-2.667,-4 -4,-8.267 -4,-12.8c-0,-2 0.333,-4.2 1,-6.6c1.2,-3.733 3.2,-6.6 6,-8.6c2.8,-2 6.134,-3 10,-3c6.134,-0 11.133,2.067 15,6.2c4,4.267 6.534,10.067 7.6,17.4c8.534,-0.4 16.4,-4.067 23.6,-11c-6.8,-1.2 -11.867,-3.467 -15.2,-6.8c-3.2,-3.467 -5.4,-8.8 -6.6,-16l-8,-49c-0.4,-2.533 -1,-4.267 -1.8,-5.2c-0.667,-1.067 -1.6,-1.6 -2.8,-1.6c-0.933,0 -2.067,0.467 -3.4,1.4c-1.2,0.933 -2.067,1.4 -2.6,1.4c-1.067,-0 -1.6,-1.133 -1.6,-3.4c-0,-1.867 0.333,-3.867 1,-6c2.4,-7.6 6.867,-14 13.4,-19.2c6.534,-5.333 14.133,-8 22.8,-8c8.533,0 14.8,2.533 18.8,7.6c4.133,5.067 6.8,12.867 8,23.4l6,44c0.4,3.333 1.6,5 3.603,5c2.4,0 5.2,-2.133 8.4,-6.4c3.2,-4.4 6.333,-10.6 9.4,-18.6c-4,-3.6 -7.067,-7.733 -9.2,-12.4c-2.134,-4.667 -3.2,-9.667 -3.2,-15c-0,-4.133 0.533,-7.867 1.6,-11.2c1.6,-5.333 4.066,-9.333 7.4,-12c3.466,-2.8 7.333,-4.2 11.6,-4.2Z" style="fill:#fff;fill-rule:nonzero;"/><path d="M682.578,2.2c14.266,-0 24.933,2.2 32,6.6c7.2,4.267 10.8,9.533 10.8,15.8c-0,5.067 -2.134,9 -6.4,11.8c-4.134,2.667 -9.6,4 -16.4,4c-6.267,-0 -11.134,-1.533 -14.6,-4.6c-3.467,-3.067 -5.2,-6.867 -5.2,-11.4c-0,-2.8 0.866,-5.733 2.6,-8.8c-4,-0 -7.334,1 -10,3c-2.667,1.867 -4.734,5.133 -6.2,9.8c-0.8,2.933 -1.2,5.667 -1.2,8.2c-0,3.2 0.533,5.733 1.6,7.6c1.2,1.733 2.866,2.6 5,2.6l11.8,-0c6.933,-0 10.4,2.133 10.4,6.4c-0,0.533 -0.134,1.333 -0.4,2.4c-0.8,2.933 -2.467,5.133 -5,6.6c-2.4,1.467 -6.067,2.2 -11,2.2l-6,0l-19.8,64.8c-0.4,1.6 -0.6,3 -0.6,4.2c-0,1.733 0.333,3.133 1,4.2c0.666,0.933 1.6,1.867 2.8,2.8c0.933,0.933 1.6,1.733 2,2.4c0.4,0.533 0.466,1.267 0.2,2.2c-0.667,1.733 -2,3 -4,3.8c-2,0.8 -5.067,1.2 -9.2,1.2l-45.6,0c-3.467,0 -6,-0.533 -7.6,-1.6c-1.6,-1.2 -2.134,-2.733 -1.6,-4.6c0.533,-1.6 1.933,-3 4.2,-4.2c2,-1.067 3.666,-2.333 5,-3.8c1.333,-1.467 2.466,-3.8 3.4,-7l15.6,-51.2c0.666,-2 1,-4.067 1,-6.2c-0,-2.667 -0.6,-4.733 -1.8,-6.2c-1.067,-1.6 -2.734,-3.333 -5,-5.2c-1.467,-1.2 -2.6,-2.2 -3.4,-3c-0.667,-0.933 -1,-2 -1,-3.2c-0.134,-2.533 0.733,-4.333 2.6,-5.4c2,-1.067 5.733,-1.6 11.2,-1.6l5,0c-0.934,-3.333 -1.4,-6.667 -1.4,-10c-0,-3.333 0.6,-6.8 1.8,-10.4c2.533,-6.8 7.933,-12.533 16.2,-17.2c8.4,-4.667 20.8,-7 37.2,-7Z" style="fill:#fff;fill-rule:nonzero;"/><path d="M761.578,44.2c18.133,0 31.466,3.667 40,11c8.666,7.333 13,16.933 13,28.8c-0,4 -0.534,8.467 -1.6,13.4c-2.534,10.933 -7.267,20.533 -14.2,28.8c-6.934,8.133 -15.467,14.467 -25.6,19c-10,4.4 -20.867,6.6 -32.6,6.6c-18.534,0 -32.267,-3.667 -41.2,-11c-8.8,-7.467 -13.2,-17.333 -13.2,-29.6c-0,-4.133 0.533,-8.733 1.6,-13.8c2.533,-10.4 7.333,-19.6 14.4,-27.6c7.2,-8.133 15.933,-14.4 26.2,-18.8c10.4,-4.533 21.466,-6.8 33.2,-6.8Zm-0.6,17.8c-2.8,0 -5.8,2.533 -9,7.6c-3.067,4.933 -6.734,14.333 -11,28.2c-4.267,13.867 -6.4,23.6 -6.4,29.2c-0,2.933 0.466,4.933 1.4,6c0.933,0.933 2.2,1.4 3.8,1.4c2.8,0.267 5.666,-2.133 8.6,-7.2c3.066,-5.067 6.866,-14.933 11.4,-29.6c4.133,-12.933 6.2,-22.333 6.2,-28.2c-0,-2.8 -0.467,-4.733 -1.4,-5.8c-0.8,-1.067 -2,-1.6 -3.6,-1.6Z" style="fill:#fff;fill-rule:nonzero;"/><path d="M892.828,44.2c18.133,0 31.466,3.667 40,11c8.666,7.333 13,16.933 13,28.8c-0,4 -0.534,8.467 -1.6,13.4c-2.534,10.933 -7.267,20.533 -14.2,28.8c-6.934,8.133 -15.467,14.467 -25.6,19c-10,4.4 -20.867,6.6 -32.6,6.6c-18.534,0 -32.267,-3.667 -41.2,-11c-8.8,-7.467 -13.2,-17.333 -13.2,-29.6c-0,-4.133 0.533,-8.733 1.6,-13.8c2.533,-10.4 7.333,-19.6 14.4,-27.6c7.2,-8.133 15.933,-14.4 26.2,-18.8c10.4,-4.533 21.466,-6.8 33.2,-6.8Zm-0.6,17.8c-2.8,0 -5.8,2.533 -9,7.6c-3.067,4.933 -6.734,14.333 -11,28.2c-4.267,13.867 -6.4,23.6 -6.4,29.2c-0,2.933 0.466,4.933 1.4,6c0.933,0.933 2.2,1.4 3.8,1.4c2.8,0.267 5.666,-2.133 8.6,-7.2c3.066,-5.067 6.866,-14.933 11.4,-29.6c4.133,-12.933 6.2,-22.333 6.2,-28.2c-0,-2.8 -0.467,-4.733 -1.4,-5.8c-0.8,-1.067 -2,-1.6 -3.6,-1.6Z" style="fill:#fff;fill-rule:nonzero;"/><path d="M1058.48,121.2c-0.267,1.067 -0.4,1.8 -0.4,2.2c-0,0.933 0.266,1.667 0.8,2.2c0.533,0.533 1.2,0.8 2,0.8c1.6,-0 2.933,-0.667 4,-2c1.2,-1.467 2,-2.2 2.4,-2.2c0.666,-0 1.2,0.467 1.6,1.4c0.4,0.933 0.6,2 0.6,3.2c0.133,3.6 -1.267,7.267 -4.2,11c-2.8,3.733 -6.6,6.8 -11.4,9.2c-4.8,2.4 -10,3.6 -15.6,3.6c-6.667,0 -12.467,-1.267 -17.4,-3.8c-4.934,-2.533 -8.334,-5.867 -10.2,-10c-3.6,4.667 -7.734,8.133 -12.4,10.4c-4.667,2.267 -9.6,3.4 -14.8,3.4c-6.134,0 -11.867,-1.533 -17.2,-4.6c-5.2,-3.067 -9.4,-7.4 -12.6,-13c-3.067,-5.733 -4.6,-12.2 -4.6,-19.4c-0,-12.133 2.266,-23.533 6.8,-34.2c4.666,-10.8 11.133,-19.467 19.4,-26c8.266,-6.667 17.666,-10 28.2,-10c5.733,0 10.6,0.667 14.6,2c4.133,1.333 7.866,3.333 11.2,6l6.8,-22.4c0.4,-1.2 0.6,-2.2 0.6,-3c-0,-1.467 -0.4,-2.667 -1.2,-3.6c-0.667,-0.933 -1.6,-1.867 -2.8,-2.8c-1.334,-1.067 -2.334,-2 -3,-2.8c-0.534,-0.8 -0.6,-1.867 -0.2,-3.2c0.8,-3.067 5,-5.733 12.6,-8c7.6,-2.267 15.533,-3.4 23.8,-3.4c7.733,-0 13.4,1.467 17,4.4c3.733,2.933 5.6,6.933 5.6,12c-0,2.933 -0.467,5.8 -1.4,8.6l-28.6,94Zm-33.4,-56.2c-2.134,-1.867 -4.467,-2.8 -7,-2.8c-3.867,0 -7.667,2.867 -11.4,8.6c-3.734,5.733 -6.734,12.667 -9,20.8c-2.267,8.133 -3.334,15.467 -3.2,22c-0,7.333 2.4,11 7.2,11c1.733,0 3.2,-0.667 4.4,-2c1.2,-1.467 2.333,-3.8 3.4,-7l15.6,-50.6Z" style="fill:#fff;fill-rule:nonzero;"/></svg>